<?xml version="1.0" standalone="no"?>
<!DOCTYPE svg PUBLIC "-//W3C//DTD SVG 20010904//EN"
 "http://www.w3.org/TR/2001/REC-SVG-20010904/DTD/svg10.dtd">
<svg version="1.0" xmlns="http://www.w3.org/2000/svg"
 width="700.000000pt" height="700.000000pt" viewBox="0 0 700.000000 700.000000"
 preserveAspectRatio="xMidYMid meet">
<metadata>
Created by potrace 1.14, written by Peter Selinger 2001-2017
</metadata>
<g transform="translate(0.000000,700.000000) scale(0.100000,-0.100000)"
fill="#000000" stroke="none">
<path d="M5350 6204 c-90 -24 -147 -67 -325 -245 l-170 -169 468 -467 467
-468 165 165 c91 91 179 186 196 213 82 125 90 294 22 435 -41 83 -423 467
-504 505 -101 47 -217 59 -319 31z"/>
<path d="M2709 3643 l-1836 -1838 1 -465 1 -465 465 -1 465 -1 1840 1838 1840
1839 -465 465 c-256 256 -467 465 -470 465 -3 0 -831 -827 -1841 -1837z m1995
1058 l159 -159 -1615 -1615 -1614 -1614 -161 0 -161 0 1 161 0 160 1611 1612
c886 887 1613 1613 1616 1613 3 1 77 -71 164 -158z"/>
</g>
</svg>
