<svg xmlns="http://www.w3.org/2000/svg" width="9.268" height="13.481" viewBox="0 0 9.268 13.481">
    <path id="Icon_awesome-lightbulb" data-name="Icon awesome-lightbulb"
          d="M2.529,11.963a.843.843,0,0,0,.141.466l.45.676a.842.842,0,0,0,.7.376H5.447a.842.842,0,0,0,.7-.376l.45-.676a.842.842,0,0,0,.141-.466v-1.01H2.528ZM0,4.634A4.608,4.608,0,0,0,1.147,7.683,7.567,7.567,0,0,1,2.522,10.09l0,.021H6.744l0-.021A7.567,7.567,0,0,1,8.121,7.683,4.633,4.633,0,1,0,0,4.634ZM4.634,2.528A2.109,2.109,0,0,0,2.528,4.634a.421.421,0,0,1-.843,0A2.952,2.952,0,0,1,4.634,1.685a.421.421,0,0,1,0,.843Z"
          transform="translate(0 0)"/>
</svg>
